<svg width="27" height="27" viewBox="0 0 27 27" fill="none" xmlns="http://www.w3.org/2000/svg">
<path d="M8 26.6667C7.26667 26.6667 6.63911 26.4058 6.11733 25.884C5.59467 25.3613 5.33333 24.7333 5.33333 24C5.33333 23.2667 5.59467 22.6387 6.11733 22.116C6.63911 21.5942 7.26667 21.3333 8 21.3333C8.73333 21.3333 9.36089 21.5942 9.88267 22.116C10.4053 22.6387 10.6667 23.2667 10.6667 24C10.6667 24.7333 10.4053 25.3613 9.88267 25.884C9.36089 26.4058 8.73333 26.6667 8 26.6667ZM21.3333 26.6667C20.6 26.6667 19.9724 26.4058 19.4507 25.884C18.928 25.3613 18.6667 24.7333 18.6667 24C18.6667 23.2667 18.928 22.6387 19.4507 22.116C19.9724 21.5942 20.6 21.3333 21.3333 21.3333C22.0667 21.3333 22.6947 21.5942 23.2173 22.116C23.7391 22.6387 24 23.2667 24 24C24 24.7333 23.7391 25.3613 23.2173 25.884C22.6947 26.4058 22.0667 26.6667 21.3333 26.6667ZM6.86667 5.33333L10.0667 12H19.4L23.0667 5.33333H6.86667ZM5.6 2.66667H25.2667C25.7778 2.66667 26.1667 2.89422 26.4333 3.34933C26.7 3.80533 26.7111 4.26667 26.4667 4.73333L21.7333 13.2667C21.4889 13.7111 21.1609 14.0556 20.7493 14.3C20.3387 14.5444 19.8889 14.6667 19.4 14.6667H9.46667L8 17.3333H24V20H8C7 20 6.24444 19.5609 5.73333 18.6827C5.22222 17.8053 5.2 16.9333 5.66667 16.0667L7.46667 12.8L2.66667 2.66667H0V0H4.33333L5.6 2.66667Z" fill="#EC5E3F"/>
</svg>
