<svg width="106" height="100" viewBox="0 0 106 100" fill="none" xmlns="http://www.w3.org/2000/svg">
<path fill-rule="evenodd" clip-rule="evenodd" d="M74.5983 59.5612V27.0661L102.503 16.2155V48.7088L74.5983 59.5612ZM43.3763 16.2163L50.3977 18.9459V27.7988C50.3977 28.4546 50.7124 29.0795 51.2407 29.4674C51.7675 29.856 52.4565 29.9708 53.0843 29.7768L56.7202 28.6463L60.8453 32.1594C61.2272 32.4839 61.7064 32.6537 62.1901 32.6537C62.4844 32.6537 62.781 32.591 63.0565 32.4635C63.7878 32.1262 64.2594 31.3881 64.2594 30.5829L64.2602 24.3373L71.2808 27.0677V59.561L43.3759 48.7112L43.3763 16.2163ZM72.9407 3.43305L78.7026 5.67449L52.0553 16.036L46.292 13.7954L72.9407 3.43305ZM53.7127 20.2349V26.113L56.6099 25.212C57.1532 25.0444 57.7434 25.1644 58.1751 25.5334L60.9478 27.8956V23.0499L53.7127 20.2349ZM56.6273 17.8132L62.6056 20.1383C71.4881 16.6858 80.3688 13.2301 89.2529 9.77676L83.2729 7.45322L56.6273 17.8132ZM72.9407 24.1569L99.5899 13.7946L93.8258 11.554C84.9433 15.0073 76.061 18.4622 67.1785 21.9155L72.9407 24.1569ZM104.762 12.2514L73.5416 0.112633C73.1552 -0.0375443 72.7265 -0.0375443 72.3409 0.112633L41.1227 12.2514C40.4865 12.4989 40.0654 13.1117 40.0654 13.7954V49.8454C40.0654 50.5291 40.4865 51.1411 41.1227 51.3894L72.3409 63.5289C72.5333 63.6036 72.7371 63.6414 72.9416 63.6414C73.1461 63.6414 73.3492 63.6036 73.5431 63.5289L104.761 51.3894C105.397 51.1419 105.817 50.5306 105.817 49.8454L105.816 13.7954C105.816 13.1117 105.396 12.4997 104.761 12.2514H104.762ZM97.8249 84.0673C101.011 83.2122 102.91 79.9235 102.056 76.7342C101.645 75.1977 100.653 73.9103 99.2609 73.1066C97.873 72.3037 96.2619 72.0893 94.7247 72.5006L63.6263 80.8337C61.6824 83.549 58.5768 85.053 55.3953 85.053C53.6678 85.0538 51.9193 84.6115 50.3224 83.681L36.697 75.7435C35.9061 75.2824 35.6382 74.2689 36.0985 73.4779C36.5596 72.6878 37.5732 72.4199 38.3641 72.881L51.9903 80.8201C55.2286 82.7067 59.4002 81.6079 61.2877 78.3682C63.1744 75.1278 62.0756 70.9575 58.8351 69.0693L33.4263 54.2642C30.3624 53.0198 27.2576 53.0311 24.1945 54.2967L13.6956 58.6337V86.1986C18.9337 84.3496 23.4888 84.6719 28.2191 87.1774L43.0104 95.0137C46.1649 96.6853 49.2085 97.0928 52.3154 96.2611L97.8249 84.0673ZM10.3564 91.4094H3.34113C3.32906 91.4094 3.31396 91.3928 3.31396 91.3822V53.4178C3.31396 53.4057 3.33056 53.3906 3.34113 53.3906H10.3558C10.3679 53.3906 10.383 53.4072 10.383 53.4178V91.3822C10.383 91.3936 10.3677 91.4094 10.3564 91.4094ZM100.918 70.2373C98.7619 68.9921 96.2563 68.6601 93.8663 69.3008L65.32 76.9485C66.1517 72.8235 64.3352 68.4397 60.5016 66.2052L34.9961 51.3436C34.9312 51.3066 34.8656 51.2734 34.7969 51.2455C30.859 49.6117 26.8677 49.6079 22.9282 51.2349L13.6957 55.0497V53.4174C13.6957 51.576 12.1969 50.0773 10.3548 50.0773L3.3409 50.078C1.49876 50.078 0 51.5768 0 53.4182V91.3827C0 93.2248 1.49876 94.7236 3.3409 94.7236H10.3556C12.1977 94.7236 13.6965 93.2248 13.6965 91.3827V89.7428C18.5422 87.7587 22.4611 87.8765 26.6685 90.105L41.4613 97.9413C44.0567 99.3178 46.6103 100 49.1846 100C50.5068 100 51.8327 99.8196 53.1737 99.4604L98.6824 87.2674C103.635 85.9399 106.584 80.8302 105.257 75.8773C104.616 73.4849 103.076 71.4821 100.918 70.2377L100.918 70.2373Z" fill="#EC5E3F"/>
</svg>
