<svg width="82" height="100" viewBox="0 0 82 100" fill="none" xmlns="http://www.w3.org/2000/svg">
<path d="M29.7045 0H8.62389C3.83284 0 0 3.83284 0 8.62389V91.3493C0 96.1404 3.83284 99.9732 8.62389 99.9732H29.7045C34.4955 99.9732 38.3284 96.1404 38.3284 91.3493V8.62389C38.3284 3.83284 34.4955 0 29.7045 0ZM29.7045 94.3827H8.62389C7.02687 94.3827 5.58955 93.1051 5.58955 91.3484V8.62298C5.58955 7.02596 6.86717 5.58864 8.62389 5.58864H29.7045C31.3015 5.58864 32.7388 6.86626 32.7388 8.62298V14.2125H26.1911C24.594 14.2125 23.3164 15.4901 23.3164 17.0872C23.3164 18.6842 24.594 19.9618 26.1911 19.9618H32.7388V27.4678H21.7194C20.1224 27.4678 18.8448 28.7454 18.8448 30.3424C18.8448 31.9394 20.1224 33.217 21.7194 33.217H32.7388V40.723H26.1911C24.594 40.723 23.3164 42.0006 23.3164 43.5976C23.3164 45.1946 24.594 46.4723 26.1911 46.4723H32.7388V53.9782H21.7194C20.1224 53.9782 18.8448 55.2558 18.8448 56.8529C18.8448 58.4499 20.1224 59.7275 21.7194 59.7275H32.7388V67.2335H26.1911C24.594 67.2335 23.3164 68.5111 23.3164 70.1081C23.3164 71.7051 24.594 72.9827 26.1911 72.9827H32.7388V80.4887H21.7194C20.1224 80.4887 18.8448 81.7663 18.8448 83.3633C18.8448 84.9604 20.1224 86.238 21.7194 86.238H32.7388V91.8275C32.7388 92.9454 31.3015 94.3827 29.7045 94.3827Z" fill="#EC5E3F"/>
<path d="M75.5398 0.638828C72.0263 0.479126 68.3532 0.479126 64.6801 0.479126C61.3263 0.479126 58.7711 3.19405 58.6114 7.18659C58.6114 9.10301 58.6114 11.0194 58.4517 12.7762V14.3732V14.8523H58.292H60.3681L79.2129 15.012H81.1293V12.7762V7.506C81.4487 3.51346 79.0532 0.638828 75.5398 0.638828Z" fill="#EC5E3F"/>
<path d="M58.9307 18.8457L58.771 23.6368V34.4965C58.771 47.9114 58.6113 61.3263 58.6113 74.7413C58.6113 75.8592 58.771 76.8174 59.0904 77.7756C60.6874 82.5666 62.2845 87.5174 63.8815 92.3084L64.9994 95.8219C65.3188 96.6204 65.6382 97.4189 66.1173 98.0577C67.5546 99.9741 69.9501 100.613 71.8666 99.3353C72.5054 99.0159 72.9845 98.5368 73.3039 97.898C73.6233 97.2592 73.9427 96.6204 74.2621 95.6622L75.38 92.3084C76.8173 88.3159 78.0949 84.4831 79.5322 80.4905L79.6919 80.0114C80.3307 78.2547 80.9696 76.1786 80.9696 73.7831V52.383L81.1293 21.5597V21.0806L81.289 19.0045L58.9307 18.8457ZM76.3382 79.0541L76.1785 79.5332C75.2203 82.5676 74.2621 85.1228 73.3039 87.678H69.1516H65.9576C64.68 84.0049 63.5621 80.4914 62.2845 76.8183C62.1248 76.4989 62.1248 76.1795 62.1248 75.8601C63.2427 76.1795 64.5203 76.1795 66.1173 75.381C66.9158 75.8601 68.0337 76.1795 69.471 76.1795C70.5889 76.1795 71.7069 75.8601 72.9845 75.2213C73.9427 75.8601 75.5397 76.3392 77.2964 76.0198C76.977 76.978 76.6576 77.9362 76.3382 79.0541Z" fill="#EC5E3F"/>
</svg>
