<svg width="22" height="22" viewBox="0 0 22 22" fill="none" xmlns="http://www.w3.org/2000/svg">
<path fill-rule="evenodd" clip-rule="evenodd" d="M11.0007 0.333496C8.10375 0.333496 7.7402 0.346163 6.60241 0.397941C5.46684 0.449942 4.69172 0.629721 4.01349 0.893502C3.31193 1.16595 2.71681 1.5304 2.12392 2.12351C1.53058 2.71641 1.16613 3.31153 0.892791 4.01287C0.628344 4.69132 0.448342 5.46666 0.397231 6.60178C0.346341 7.73957 0.333008 8.10335 0.333008 11.0003C0.333008 13.8972 0.345897 14.2596 0.397453 15.3974C0.449676 16.533 0.629455 17.3081 0.893014 17.9863C1.16568 18.6879 1.53013 19.283 2.12325 19.8759C2.71592 20.4693 3.31104 20.8346 4.01216 21.107C4.69083 21.3708 5.46617 21.5506 6.60152 21.6026C7.73931 21.6544 8.10265 21.667 10.9993 21.667C13.8965 21.667 14.2589 21.6544 15.3967 21.6026C16.5323 21.5506 17.3083 21.3708 17.987 21.107C18.6883 20.8346 19.2825 20.4693 19.8752 19.8759C20.4686 19.283 20.833 18.6879 21.1063 17.9866C21.3686 17.3081 21.5486 16.5328 21.6019 15.3977C21.653 14.2599 21.6663 13.8972 21.6663 11.0003C21.6663 8.10335 21.653 7.73979 21.6019 6.60201C21.5486 5.46644 21.3686 4.69132 21.1063 4.01309C20.833 3.31153 20.4686 2.71641 19.8752 2.12351C19.2819 1.53018 18.6885 1.16573 17.9863 0.893502C17.3063 0.629721 16.5307 0.449942 15.3952 0.397941C14.2574 0.346163 13.8952 0.333496 10.9973 0.333496H11.0007ZM10.0437 2.25571C10.3277 2.25526 10.6446 2.25571 11.0006 2.25571C13.8487 2.25571 14.1862 2.26593 15.3109 2.31704C16.3509 2.3646 16.9154 2.53838 17.2914 2.68438C17.7891 2.87771 18.144 3.10883 18.5172 3.48217C18.8905 3.8555 19.1216 4.21106 19.3154 4.70885C19.4614 5.0844 19.6354 5.64885 19.6827 6.68887C19.7338 7.81332 19.7449 8.1511 19.7449 10.9978C19.7449 13.8445 19.7338 14.1823 19.6827 15.3067C19.6352 16.3467 19.4614 16.9112 19.3154 17.2868C19.122 17.7845 18.8905 18.139 18.5172 18.5121C18.1438 18.8854 17.7894 19.1166 17.2914 19.3099C16.9158 19.4566 16.3509 19.6299 15.3109 19.6774C14.1864 19.7286 13.8487 19.7397 11.0006 19.7397C8.15238 19.7397 7.81482 19.7286 6.69036 19.6774C5.65035 19.6294 5.0859 19.4557 4.70967 19.3097C4.21189 19.1163 3.85633 18.8852 3.483 18.5119C3.10966 18.1385 2.87854 17.7839 2.68476 17.2859C2.53876 16.9103 2.36476 16.3459 2.31743 15.3058C2.26632 14.1814 2.25609 13.8436 2.25609 10.9951C2.25609 8.14666 2.26632 7.81066 2.31743 6.6862C2.36498 5.64619 2.53876 5.08174 2.68476 4.70573C2.8781 4.20795 3.10966 3.85239 3.483 3.47905C3.85633 3.10572 4.21189 2.8746 4.70967 2.68082C5.08568 2.53416 5.65035 2.36082 6.69036 2.31304C7.67437 2.2686 8.05571 2.25526 10.0437 2.25304V2.25571ZM16.6945 4.02684C15.9878 4.02684 15.4145 4.59951 15.4145 5.30641C15.4145 6.01309 15.9878 6.58642 16.6945 6.58642C17.4011 6.58642 17.9745 6.01309 17.9745 5.30641C17.9745 4.59974 17.4011 4.02684 16.6945 4.02684ZM11.0007 5.52241C7.97555 5.52241 5.52286 7.9751 5.52286 11.0002C5.52286 14.0254 7.97555 16.477 11.0007 16.477C14.0258 16.477 16.4776 14.0254 16.4776 11.0002C16.4776 7.9751 14.0258 5.52241 11.0007 5.52241ZM11.0007 7.44465C12.9642 7.44465 14.5562 9.03645 14.5562 11.0002C14.5562 12.9638 12.9642 14.5558 11.0007 14.5558C9.03685 14.5558 7.44506 12.9638 7.44506 11.0002C7.44506 9.03645 9.03685 7.44465 11.0007 7.44465Z" fill="white"/>
</svg>
