<svg width="32" height="22" viewBox="0 0 32 22" fill="none" xmlns="http://www.w3.org/2000/svg">
<path d="M30.3291 9.22217H8.78244C7.85951 9.22217 7.11133 9.97035 7.11133 10.8933V11.1066C7.11133 12.0295 7.85951 12.7777 8.78244 12.7777H30.3291C31.252 12.7777 32.0002 12.0295 32.0002 11.1066V10.8933C32.0002 9.97035 31.252 9.22217 30.3291 9.22217Z" fill="#363633"/>
<path d="M30.3289 18.1111H1.67111C0.748182 18.1111 0 18.8593 0 19.7822V19.9955C0 20.9185 0.748182 21.6666 1.67111 21.6666H30.3289C31.2518 21.6666 32 20.9185 32 19.9955V19.7822C32 18.8593 31.2518 18.1111 30.3289 18.1111Z" fill="#363633"/>
<path d="M30.3289 0.333252H1.67111C0.748182 0.333252 0 1.08143 0 2.00436V2.2177C0 3.14063 0.748182 3.88881 1.67111 3.88881H30.3289C31.2518 3.88881 32 3.14063 32 2.2177V2.00436C32 1.08143 31.2518 0.333252 30.3289 0.333252Z" fill="#363633"/>
</svg>
