<svg width="62" height="50" viewBox="0 0 62 50" fill="none" xmlns="http://www.w3.org/2000/svg">
<path d="M13.8644 0C16.7832 0 19.2156 0.809915 21.1614 2.42975C23.2289 3.92499 24.81 6.04324 25.9045 8.7845C26.9991 11.4012 27.5464 14.5162 27.5464 18.1297C27.5464 22.2416 26.8167 26.2912 25.3573 30.2785C24.0195 34.2658 21.8912 37.9416 18.9723 41.3058C16.0535 44.6701 12.2834 47.4737 7.66191 49.7165L0 42.4273C3.28367 41.3058 6.14169 39.7483 8.57404 37.7547C11.128 35.761 13.1955 33.5182 14.7765 31.0261C16.3576 28.5341 17.3913 25.9797 17.8778 23.363L17.1481 22.9892C16.6616 23.363 16.0535 23.6745 15.3238 23.9237C14.5941 24.1729 13.4995 24.2976 12.0401 24.2976C10.5807 24.2976 9.06051 23.8614 7.47948 22.9892C6.02007 22.117 4.74308 20.871 3.64853 19.2511C2.55397 17.5067 2.00669 15.2639 2.00669 12.5226C2.00669 10.2797 2.55397 8.22379 3.64853 6.35475C4.74308 4.3611 6.14169 2.80356 7.84433 1.68214C9.66859 0.560709 11.6753 0 13.8644 0ZM48.1605 0C51.0794 0 53.5117 0.809915 55.4576 2.42975C57.5251 3.92499 59.1061 6.04324 60.2007 8.7845C61.2952 11.4012 61.8425 14.5162 61.8425 18.1297C61.8425 22.2416 61.1128 26.2912 59.6534 30.2785C58.3156 34.2658 56.1873 37.9416 53.2685 41.3058C50.3497 44.6701 46.5795 47.4737 41.9581 49.7165L34.2961 42.4273C37.5798 41.3058 40.4378 39.7483 42.8702 37.7547C45.4242 35.761 47.4916 33.5182 49.0727 31.0261C50.6537 28.5341 51.6875 25.9797 52.1739 23.363L51.4442 22.9892C50.9577 23.363 50.3497 23.6745 49.62 23.9237C48.8903 24.1729 47.7957 24.2976 46.3363 24.2976C44.8769 24.2976 43.3567 23.8614 41.7756 22.9892C40.3162 22.117 39.0392 20.871 37.9447 19.2511C36.8501 17.5067 36.3028 15.2639 36.3028 12.5226C36.3028 10.2797 36.8501 8.22379 37.9447 6.35475C39.0392 4.3611 40.4378 2.80356 42.1405 1.68214C43.9647 0.560709 45.9714 0 48.1605 0Z" fill="black" fill-opacity="0.08"/>
</svg>
