<svg width="81" height="100" viewBox="0 0 81 100" fill="none" xmlns="http://www.w3.org/2000/svg">
<path fill-rule="evenodd" clip-rule="evenodd" d="M25.4856 4.84159C25.7479 4.84872 26.0087 4.90104 26.2536 4.99616C26.4978 5.09128 26.7261 5.22919 26.9234 5.40199C27.1208 5.57479 27.2881 5.78168 27.4157 6.01075C27.5433 6.23982 27.6305 6.49189 27.6725 6.75108C27.7145 7.01027 27.7105 7.2766 27.6622 7.53422C27.6138 7.79183 27.5203 8.04152 27.3871 8.26743C27.1208 8.71925 26.6928 9.07435 26.1997 9.25191C13.5554 14.0158 4.54622 26.225 4.54622 40.5683C4.54622 50.2855 8.68232 59.0061 15.2851 65.1296C15.557 65.3817 15.7655 65.7011 15.8867 66.0507C16.008 66.401 16.0421 66.7807 15.985 67.1469L13.0981 85.6267L48.5359 94.877L50.2361 81.8536C50.2774 81.5405 50.3836 81.237 50.5477 80.9675C50.7117 80.698 50.9321 80.4633 51.1913 80.2826C51.4497 80.1027 51.747 79.9766 52.0561 79.9164C52.366 79.8561 52.6878 79.8617 52.9954 79.9314L63.5916 82.3482L65.406 71.2583C65.4488 70.9951 65.5392 70.7391 65.67 70.5069C65.8015 70.2746 65.9735 70.0654 66.1773 69.8926C66.3802 69.7198 66.6148 69.5835 66.8645 69.4915C67.115 69.3995 67.3813 69.352 67.6484 69.352H75.1889L70.9243 49.0926C70.8863 48.9135 70.8704 48.7303 70.8768 48.548L71.2691 36.9072C69.9335 24.6156 61.9373 14.3284 50.9711 9.70799C50.6929 9.59544 50.4369 9.4274 50.2229 9.21575C50.0096 9.00411 49.8384 8.75046 49.7227 8.47303C49.607 8.1956 49.5475 7.89518 49.5483 7.59478C49.5491 7.29436 49.6102 6.99395 49.7267 6.71732C49.8432 6.44068 50.0152 6.18703 50.23 5.97699C50.4448 5.76693 50.7009 5.59968 50.9799 5.48791C51.2589 5.37694 51.5601 5.32146 51.8605 5.32701C52.1609 5.33255 52.4597 5.39755 52.7348 5.51883C65.2476 10.79 74.3437 22.552 75.8067 36.5816C75.8178 36.6854 75.821 36.7893 75.8178 36.8939L75.4294 48.4262L80.213 71.1571C80.282 71.4869 80.2772 71.8317 80.198 72.159C80.1187 72.4864 79.9657 72.7955 79.7533 73.0571C79.5409 73.3187 79.2698 73.5319 78.9662 73.677C78.6618 73.822 78.3257 73.8981 77.9888 73.8981H69.5789L67.686 85.4692C67.6361 85.7743 67.5227 86.0692 67.3563 86.3292C67.189 86.5892 66.9686 86.8151 66.7118 86.9879C66.455 87.1607 66.1633 87.2804 65.8589 87.3367C65.5553 87.3937 65.2391 87.3866 64.9379 87.3184L54.4193 84.9191L52.7088 98.0208C52.6676 98.3394 52.5574 98.6485 52.3878 98.922C52.2189 99.1955 51.9915 99.4317 51.7243 99.6116C51.458 99.7915 51.1528 99.9128 50.8366 99.9675C50.5195 100.022 50.1921 100.007 49.8806 99.9263L9.96033 89.506C9.69083 89.4355 9.43481 89.315 9.20811 89.1525C8.9822 88.99 8.78642 88.7855 8.63344 88.5525C8.48046 88.3194 8.37107 88.0586 8.31242 87.786C8.25377 87.5141 8.24505 87.2311 8.28864 86.9553L11.3103 67.6147C4.3374 60.7201 0 51.1387 0 40.5676C0 24.32 10.218 10.416 24.5958 4.99804C24.878 4.88707 25.1824 4.83317 25.4852 4.8411L25.4856 4.84159Z" fill="#EC5E3F"/>
<path fill-rule="evenodd" clip-rule="evenodd" d="M44.5113 0C44.8085 0 45.1058 0.0594488 45.3809 0.172797C45.6559 0.286939 45.908 0.454976 46.118 0.665828C46.3281 0.87589 46.4969 1.12794 46.6103 1.40299C46.7244 1.67805 46.7831 1.97528 46.7831 2.27254V35.7744C51.4382 38.3829 54.6009 43.3632 54.6009 49.056C54.6009 53.8603 52.353 58.1549 48.8589 60.9489L54.1594 70.1231C54.3124 70.3807 54.4138 70.6692 54.4558 70.9656C54.4978 71.2629 54.4804 71.5681 54.4043 71.8581C54.3282 72.1483 54.195 72.4233 54.0127 72.6619C53.8312 72.9005 53.6013 73.1026 53.3421 73.2524C53.0822 73.4022 52.7928 73.5005 52.4956 73.5386C52.1983 73.5774 51.8931 73.556 51.6038 73.476C51.3145 73.3967 51.0419 73.2596 50.8049 73.0749C50.5686 72.8902 50.3697 72.6587 50.2223 72.3972L44.9257 63.2301C43.2032 63.9094 41.3293 64.2828 39.3724 64.2828C30.9869 64.2828 24.1455 57.4413 24.1455 49.0559C24.1455 43.3631 27.3066 38.3814 31.9634 35.7727V2.27284C31.9634 1.97561 32.0228 1.67835 32.1362 1.4033C32.2503 1.12824 32.4184 0.876176 32.6284 0.666135C32.8393 0.456073 33.0905 0.287245 33.3656 0.173104C33.6406 0.0589619 33.9379 0.000306533 34.2351 0.000306533L44.5113 0ZM42.2388 4.54497H36.5118V34.1122C37.44 33.9347 38.3968 33.8404 39.3756 33.8404C40.3538 33.8404 41.3113 33.9347 42.2394 34.1131L42.2388 4.54497ZM39.375 38.3857C33.4429 38.3857 28.6931 43.1368 28.6931 49.0564C28.6931 54.9885 33.4419 59.7382 39.375 59.7382C45.2938 59.7382 50.0569 54.9863 50.0569 49.0564C50.0569 43.1393 45.2946 38.3857 39.375 38.3857Z" fill="#EC5E3F"/>
</svg>
