<svg width="20" height="16" viewBox="0 0 20 16" fill="none" xmlns="http://www.w3.org/2000/svg">
<path fill-rule="evenodd" clip-rule="evenodd" d="M9.73401 4.25662L9.77598 4.94866L9.0765 4.86392C6.53039 4.53908 4.30605 3.43746 2.41746 1.5873L1.49414 0.669281L1.25632 1.3472C0.752695 2.8584 1.07446 4.45434 2.12367 5.52772C2.68326 6.1209 2.55735 6.20564 1.59207 5.85256C1.25632 5.73957 0.962539 5.65483 0.93456 5.6972C0.836633 5.79606 1.17238 7.08129 1.43819 7.58973C1.80191 8.2959 2.54336 8.98795 3.35476 9.39752L4.04025 9.72236L3.22885 9.73648C2.44544 9.73648 2.41746 9.75061 2.50139 10.0472C2.78119 10.9652 3.88636 11.9397 5.11745 12.3634L5.9848 12.66L5.22936 13.112C4.1102 13.7616 2.79518 14.1289 1.48015 14.1571C0.850623 14.1712 0.333008 14.2277 0.333008 14.2701C0.333008 14.4113 2.03974 15.2022 3.033 15.5129C6.01278 16.431 9.55215 16.0355 12.2102 14.4678C14.0988 13.3521 15.9874 11.1347 16.8687 8.98795C17.3443 7.84395 17.82 5.75369 17.82 4.75093C17.82 4.10126 17.862 4.01652 18.6454 3.23973C19.107 2.78779 19.5407 2.29347 19.6246 2.15223C19.7645 1.88389 19.7506 1.88389 19.0371 2.12399C17.848 2.54769 17.6801 2.4912 18.2677 1.85564C18.7013 1.4037 19.219 0.584541 19.219 0.344443C19.219 0.302073 19.0091 0.37269 18.7713 0.4998C18.5195 0.641034 17.9599 0.852885 17.5402 0.979995L16.7848 1.22009L16.0993 0.754021C15.7216 0.4998 15.1899 0.217333 14.9102 0.132593C14.1967 -0.0651344 13.1055 -0.0368877 12.462 0.189086C10.7133 0.824638 9.6081 2.46295 9.73401 4.25662Z" fill="white"/>
</svg>
