<svg width="22" height="16" viewBox="0 0 22 16" fill="none" xmlns="http://www.w3.org/2000/svg">
<path fill-rule="evenodd" clip-rule="evenodd" d="M19.3343 1.12464C20.2523 1.37653 20.9752 2.11871 21.2205 3.06122C21.6663 4.7694 21.6663 8.33354 21.6663 8.33354C21.6663 8.33354 21.6663 11.8975 21.2205 13.6059C20.9752 14.5484 20.2523 15.2905 19.3343 15.5426C17.6708 16.0002 10.9997 16.0002 10.9997 16.0002C10.9997 16.0002 4.32852 16.0002 2.66489 15.5426C1.74695 15.2905 1.02404 14.5484 0.778705 13.6059C0.333008 11.8975 0.333008 8.33354 0.333008 8.33354C0.333008 8.33354 0.333008 4.7694 0.778705 3.06122C1.02404 2.11871 1.74695 1.37653 2.66489 1.12464C4.32852 0.66687 10.9997 0.66687 10.9997 0.66687C10.9997 0.66687 17.6708 0.66687 19.3343 1.12464ZM8.99969 5.33347V12.0001L14.333 8.66693L8.99969 5.33347Z" fill="white"/>
</svg>
